<?xml version="1.0" encoding="utf-8" standalone="no"?>
<!DOCTYPE svg PUBLIC "-//W3C//DTD SVG 1.1//EN"
  "http://www.w3.org/Graphics/SVG/1.1/DTD/svg11.dtd">
<!-- Created with matplotlib (https://matplotlib.org/) -->
<svg height="345.6pt" version="1.1" viewBox="0 0 460.8 345.6" width="460.8pt" xmlns="http://www.w3.org/2000/svg" xmlns:xlink="http://www.w3.org/1999/xlink">
 <defs>
  <style type="text/css">
*{stroke-linecap:butt;stroke-linejoin:round;}
  </style>
 </defs>
 <g id="figure_1">
  <g id="patch_1">
   <path d="M 0 345.6 
L 460.8 345.6 
L 460.8 0 
L 0 0 
z
" style="fill:#ffffff;"/>
  </g>
  <g id="axes_1">
   <g id="PatchCollection_1">
    <path clip-path="url(#pd5d80abc49)" d="M 353.08957 208.603118 
L 363.540756 216.678609 
L 398.487273 212.111495 
L 398.487273 177.01961 
L 363.078201 171.732516 
L 353.99033 178.349923 
z
" style="fill:#ffffff;stroke:#000000;"/>
    <path clip-path="url(#pd5d80abc49)" d="M 177.78303 255.691636 
L 213.997644 255.691636 
L 213.755652 216.7707 
L 189.328243 209.709206 
L 177.123461 217.726432 
z
" style="fill:#ffffff;stroke:#000000;"/>
    <path clip-path="url(#pd5d80abc49)" d="M 115.485799 168.474056 
L 152.337081 169.751752 
L 155.423784 136.217944 
L 122.760483 123.593751 
L 110.624226 135.539048 
z
" style="fill:#ffffff;stroke:#000000;"/>
    <path clip-path="url(#pd5d80abc49)" d="M 250.935487 255.691636 
L 288.667586 255.691636 
L 288.635285 217.797453 
L 268.172841 208.358969 
L 250.984606 217.379451 
z
" style="fill:#ffffff;stroke:#000000;"/>
    <path clip-path="url(#pd5d80abc49)" d="M 152.337081 169.751752 
L 187.467523 175.645526 
L 197.646931 167.292841 
L 197.071012 138.649475 
L 169.983103 126.119166 
L 155.423784 136.217944 
z
" style="fill:#ffffff;stroke:#000000;"/>
    <path clip-path="url(#pd5d80abc49)" d="M 122.760483 123.593751 
L 155.423784 136.217944 
L 169.983103 126.119166 
L 170.815126 93.364364 
L 122.045001 93.364364 
z
" style="fill:#ffffff;stroke:#000000;"/>
    <path clip-path="url(#pd5d80abc49)" d="M 169.983103 126.119166 
L 197.071012 138.649475 
L 216.494035 125.643934 
L 216.357539 93.364364 
L 170.815126 93.364364 
z
" style="fill:#ffffff;stroke:#000000;"/>
    <path clip-path="url(#pd5d80abc49)" d="M 197.646931 167.292841 
L 227.859967 175.975763 
L 240.924819 166.882779 
L 241.203223 138.353843 
L 216.494035 125.643934 
L 197.071012 138.649475 
z
" style="fill:#ffffff;stroke:#000000;"/>
    <path clip-path="url(#pd5d80abc49)" d="M 73.832727 131.26772 
L 110.624226 135.539048 
L 122.760483 123.593751 
L 122.045001 93.364364 
L 73.832727 93.364364 
z
" style="fill:#ffffff;stroke:#000000;"/>
    <path clip-path="url(#pd5d80abc49)" d="M 352.567214 126.895656 
L 364.138476 135.654123 
L 398.487273 130.366967 
L 398.487273 93.364364 
L 352.695661 93.364364 
z
" style="fill:#ffffff;stroke:#000000;"/>
    <path clip-path="url(#pd5d80abc49)" d="M 73.832727 214.863657 
L 106.287283 216.698706 
L 114.989536 209.274157 
L 109.451095 175.103458 
L 73.832727 175.108477 
z
" style="fill:#ffffff;stroke:#000000;"/>
    <path clip-path="url(#pd5d80abc49)" d="M 362.44194 255.691636 
L 398.487273 255.691636 
L 398.487273 212.111495 
L 363.540756 216.678609 
z
" style="fill:#ffffff;stroke:#000000;"/>
    <path clip-path="url(#pd5d80abc49)" d="M 114.989536 209.274157 
L 143.340369 213.53439 
L 147.910584 210.744658 
L 152.337081 169.751752 
L 115.485799 168.474056 
L 109.451095 175.103458 
z
" style="fill:#ffffff;stroke:#000000;"/>
    <path clip-path="url(#pd5d80abc49)" d="M 288.667586 255.691636 
L 326.356341 255.691636 
L 326.242743 217.532315 
L 309.995872 208.171883 
L 288.635285 217.797453 
z
" style="fill:#ffffff;stroke:#000000;"/>
    <path clip-path="url(#pd5d80abc49)" d="M 140.857197 255.691636 
L 177.78303 255.691636 
L 177.123461 217.726432 
L 147.910584 210.744658 
L 143.340369 213.53439 
z
" style="fill:#ffffff;stroke:#000000;"/>
    <path clip-path="url(#pd5d80abc49)" d="M 283.814151 167.254753 
L 310.208982 177.867326 
L 325.133273 168.230705 
L 325.405954 137.601002 
L 307.157956 126.229044 
L 284.030055 138.290279 
z
" style="fill:#ffffff;stroke:#000000;"/>
    <path clip-path="url(#pd5d80abc49)" d="M 326.356341 255.691636 
L 362.44194 255.691636 
L 363.540756 216.678609 
L 353.08957 208.603118 
L 326.242743 217.532315 
z
" style="fill:#ffffff;stroke:#000000;"/>
    <path clip-path="url(#pd5d80abc49)" d="M 227.630028 208.716448 
L 250.984606 217.379451 
L 268.172841 208.358969 
L 268.432694 177.138394 
L 240.924819 166.882779 
L 227.859967 175.975763 
z
" style="fill:#ffffff;stroke:#000000;"/>
    <path clip-path="url(#pd5d80abc49)" d="M 147.910584 210.744658 
L 177.123461 217.726432 
L 189.328243 209.709206 
L 187.467523 175.645526 
L 152.337081 169.751752 
z
" style="fill:#ffffff;stroke:#000000;"/>
    <path clip-path="url(#pd5d80abc49)" d="M 363.078201 171.732516 
L 398.487273 177.01961 
L 398.487273 130.366967 
L 364.138476 135.654123 
z
" style="fill:#ffffff;stroke:#000000;"/>
    <path clip-path="url(#pd5d80abc49)" d="M 268.172841 208.358969 
L 288.635285 217.797453 
L 309.995872 208.171883 
L 310.208982 177.867326 
L 283.814151 167.254753 
L 268.432694 177.138394 
z
" style="fill:#ffffff;stroke:#000000;"/>
    <path clip-path="url(#pd5d80abc49)" d="M 216.494035 125.643934 
L 241.203223 138.353843 
L 261.906415 125.977404 
L 261.961647 93.364364 
L 216.357539 93.364364 
z
" style="fill:#ffffff;stroke:#000000;"/>
    <path clip-path="url(#pd5d80abc49)" d="M 109.743587 255.691636 
L 140.857197 255.691636 
L 143.340369 213.53439 
L 114.989536 209.274157 
L 106.287283 216.698706 
z
" style="fill:#ffffff;stroke:#000000;"/>
    <path clip-path="url(#pd5d80abc49)" d="M 189.328243 209.709206 
L 213.755652 216.7707 
L 227.630028 208.716448 
L 227.859967 175.975763 
L 197.646931 167.292841 
L 187.467523 175.645526 
z
" style="fill:#ffffff;stroke:#000000;"/>
    <path clip-path="url(#pd5d80abc49)" d="M 240.924819 166.882779 
L 268.432694 177.138394 
L 283.814151 167.254753 
L 284.030055 138.290279 
L 261.906415 125.977404 
L 241.203223 138.353843 
z
" style="fill:#ffffff;stroke:#000000;"/>
    <path clip-path="url(#pd5d80abc49)" d="M 213.997644 255.691636 
L 250.935487 255.691636 
L 250.984606 217.379451 
L 227.630028 208.716448 
L 213.755652 216.7707 
z
" style="fill:#ffffff;stroke:#000000;"/>
    <path clip-path="url(#pd5d80abc49)" d="M 325.133273 168.230705 
L 353.99033 178.349923 
L 363.078201 171.732516 
L 364.138476 135.654123 
L 352.567214 126.895656 
L 325.405954 137.601002 
z
" style="fill:#ffffff;stroke:#000000;"/>
    <path clip-path="url(#pd5d80abc49)" d="M 261.906415 125.977404 
L 284.030055 138.290279 
L 307.157956 126.229044 
L 307.087234 93.364364 
L 261.961647 93.364364 
z
" style="fill:#ffffff;stroke:#000000;"/>
    <path clip-path="url(#pd5d80abc49)" d="M 73.832727 255.691636 
L 109.743587 255.691636 
L 106.287283 216.698706 
L 73.832727 214.863657 
z
" style="fill:#ffffff;stroke:#000000;"/>
    <path clip-path="url(#pd5d80abc49)" d="M 309.995872 208.171883 
L 326.242743 217.532315 
L 353.08957 208.603118 
L 353.99033 178.349923 
L 325.133273 168.230705 
L 310.208982 177.867326 
z
" style="fill:#ffffff;stroke:#000000;"/>
    <path clip-path="url(#pd5d80abc49)" d="M 73.832727 175.108477 
L 109.451095 175.103458 
L 115.485799 168.474056 
L 110.624226 135.539048 
L 73.832727 131.26772 
z
" style="fill:#ffffff;stroke:#000000;"/>
    <path clip-path="url(#pd5d80abc49)" d="M 307.157956 126.229044 
L 325.405954 137.601002 
L 352.567214 126.895656 
L 352.695661 93.364364 
L 307.087234 93.364364 
z
" style="fill:#ffffff;stroke:#000000;"/>
   </g>
  </g>
 </g>
 <defs>
  <clipPath id="pd5d80abc49">
   <rect height="178.56" width="357.12" x="57.6" y="85.248"/>
  </clipPath>
 </defs>
</svg>
