<?xml version="1.0" encoding="utf-8" standalone="no"?>
<!DOCTYPE svg PUBLIC "-//W3C//DTD SVG 1.1//EN"
  "http://www.w3.org/Graphics/SVG/1.1/DTD/svg11.dtd">
<!-- Created with matplotlib (https://matplotlib.org/) -->
<svg height="345.6pt" version="1.1" viewBox="0 0 460.8 345.6" width="460.8pt" xmlns="http://www.w3.org/2000/svg" xmlns:xlink="http://www.w3.org/1999/xlink">
 <defs>
  <style type="text/css">
*{stroke-linecap:butt;stroke-linejoin:round;}
  </style>
 </defs>
 <g id="figure_1">
  <g id="patch_1">
   <path d="M 0 345.6 
L 460.8 345.6 
L 460.8 0 
L 0 0 
z
" style="fill:#ffffff;"/>
  </g>
  <g id="axes_1">
   <g id="PatchCollection_1">
    <path clip-path="url(#pc59c0bc9f4)" d="M 241.646153 67.315352 
L 254.402967 72.174261 
L 256.32317 71.269468 
L 258.534609 53.568 
L 241.399245 53.568 
z
" style="fill:#ffffff;stroke:#000000;"/>
    <path clip-path="url(#pc59c0bc9f4)" d="M 290.038765 98.328412 
L 305.253616 93.256795 
L 298.595116 76.404285 
L 289.813318 76.219881 
L 284.422718 84.984671 
z
" style="fill:#ffffff;stroke:#000000;"/>
    <path clip-path="url(#pc59c0bc9f4)" d="M 155.52 238.858526 
L 165.336606 239.923439 
L 180.021881 229.356111 
L 163.055526 215.984219 
L 155.52 216.682812 
z
" style="fill:#ffffff;stroke:#000000;"/>
    <path clip-path="url(#pc59c0bc9f4)" d="M 162.647098 191.13318 
L 174.520284 202.707053 
L 182.4 202.555119 
L 182.4 178.876788 
L 174.285914 178.837534 
z
" style="fill:#ffffff;stroke:#000000;"/>
    <path clip-path="url(#pc59c0bc9f4)" d="M 225.248125 68.464007 
L 234.350796 72.526161 
L 241.646153 67.315352 
L 241.399245 53.568 
L 224.689663 53.568 
z
" style="fill:#ffffff;stroke:#000000;"/>
    <path clip-path="url(#pc59c0bc9f4)" d="M 155.52 191.130569 
L 162.647098 191.13318 
L 174.285914 178.837534 
L 163.17349 166.815928 
L 155.52 166.881944 
z
" style="fill:#ffffff;stroke:#000000;"/>
    <path clip-path="url(#pc59c0bc9f4)" d="M 182.43086 89.266084 
L 189.929314 93.166253 
L 200.327416 88.38568 
L 199.277353 73.063701 
L 191.847115 69.552628 
L 184.184604 73.204074 
z
" style="fill:#ffffff;stroke:#000000;"/>
    <path clip-path="url(#pc59c0bc9f4)" d="M 228.929573 98.727915 
L 238.314352 102.215347 
L 250.119413 90.701433 
L 248.973907 88.071287 
L 235.25683 82.140418 
L 226.958258 89.545767 
z
" style="fill:#ffffff;stroke:#000000;"/>
    <path clip-path="url(#pc59c0bc9f4)" d="M 303.86735 71.611147 
L 316.8 71.826732 
L 316.8 53.568 
L 299.471251 53.568 
z
" style="fill:#ffffff;stroke:#000000;"/>
    <path clip-path="url(#pc59c0bc9f4)" d="M 176.329622 112.214488 
L 185.553138 112.728644 
L 191.190931 108.101059 
L 189.929314 93.166253 
L 182.43086 89.266084 
L 174.599283 91.459753 
L 169.473234 99.341829 
z
" style="fill:#ffffff;stroke:#000000;"/>
    <path clip-path="url(#pc59c0bc9f4)" d="M 155.52 295.488 
L 182.4 295.488 
L 182.4 278.268029 
L 155.52 276.199005 
z
" style="fill:#ffffff;stroke:#000000;"/>
    <path clip-path="url(#pc59c0bc9f4)" d="M 285.332673 69.628882 
L 289.813318 76.219881 
L 298.595116 76.404285 
L 303.86735 71.611147 
L 299.471251 53.568 
L 291.244766 53.568 
z
" style="fill:#ffffff;stroke:#000000;"/>
    <path clip-path="url(#pc59c0bc9f4)" d="M 155.52 120.110356 
L 168.727101 120.92649 
L 176.329622 112.214488 
L 169.473234 99.341829 
L 155.52 100.248304 
z
" style="fill:#ffffff;stroke:#000000;"/>
    <path clip-path="url(#pc59c0bc9f4)" d="M 248.973907 88.071287 
L 250.119413 90.701433 
L 253.376072 92.442407 
L 268.847429 88.632304 
L 270.627538 85.542975 
L 267.385317 74.371727 
L 256.32317 71.269468 
L 254.402967 72.174261 
z
" style="fill:#ffffff;stroke:#000000;"/>
    <path clip-path="url(#pc59c0bc9f4)" d="M 190.858153 131.388616 
L 207.09844 125.975187 
L 202.964658 110.343581 
L 191.190931 108.101059 
L 185.553138 112.728644 
z
" style="fill:#ffffff;stroke:#000000;"/>
    <path clip-path="url(#pc59c0bc9f4)" d="M 163.055526 215.984219 
L 180.021881 229.356111 
L 182.4 229.304054 
L 182.4 202.555119 
L 174.520284 202.707053 
z
" style="fill:#ffffff;stroke:#000000;"/>
    <path clip-path="url(#pc59c0bc9f4)" d="M 208.438018 69.479319 
L 216.361246 73.338182 
L 225.248125 68.464007 
L 224.689663 53.568 
L 209.28 53.568 
z
" style="fill:#ffffff;stroke:#000000;"/>
    <path clip-path="url(#pc59c0bc9f4)" d="M 217.461982 85.51372 
L 226.958258 89.545767 
L 235.25683 82.140418 
L 234.350796 72.526161 
L 225.248125 68.464007 
L 216.361246 73.338182 
z
" style="fill:#ffffff;stroke:#000000;"/>
    <path clip-path="url(#pc59c0bc9f4)" d="M 173.516008 155.872993 
L 182.4 155.814259 
L 182.4 135.395096 
L 174.149152 133.413747 
L 163.186095 143.013855 
z
" style="fill:#ffffff;stroke:#000000;"/>
    <path clip-path="url(#pc59c0bc9f4)" d="M 305.253616 93.256795 
L 316.8 89.408 
L 316.8 71.826732 
L 303.86735 71.611147 
L 298.595116 76.404285 
z
" style="fill:#ffffff;stroke:#000000;"/>
    <path clip-path="url(#pc59c0bc9f4)" d="M 207.09844 125.975187 
L 224.573622 120.150126 
L 220.625142 106.679415 
L 210.185401 103.856175 
L 202.964658 110.343581 
z
" style="fill:#ffffff;stroke:#000000;"/>
    <path clip-path="url(#pc59c0bc9f4)" d="M 174.285914 178.837534 
L 182.4 178.876788 
L 182.4 155.814259 
L 173.516008 155.872993 
L 163.17349 166.815928 
z
" style="fill:#ffffff;stroke:#000000;"/>
    <path clip-path="url(#pc59c0bc9f4)" d="M 155.52 276.199005 
L 182.4 278.268029 
L 182.4 258.480468 
L 173.56336 256.270883 
L 155.52 264.532035 
z
" style="fill:#ffffff;stroke:#000000;"/>
    <path clip-path="url(#pc59c0bc9f4)" d="M 155.52 76.644516 
L 163.1382 76.833794 
L 173.620565 68.901644 
L 171.921088 53.568 
L 155.52 53.568 
z
" style="fill:#ffffff;stroke:#000000;"/>
    <path clip-path="url(#pc59c0bc9f4)" d="M 273.936946 67.929011 
L 285.332673 69.628882 
L 291.244766 53.568 
L 271.187951 53.568 
z
" style="fill:#ffffff;stroke:#000000;"/>
    <path clip-path="url(#pc59c0bc9f4)" d="M 270.627538 85.542975 
L 284.422718 84.984671 
L 289.813318 76.219881 
L 285.332673 69.628882 
L 273.936946 67.929011 
L 267.385317 74.371727 
z
" style="fill:#ffffff;stroke:#000000;"/>
    <path clip-path="url(#pc59c0bc9f4)" d="M 210.185401 103.856175 
L 220.625142 106.679415 
L 228.929573 98.727915 
L 226.958258 89.545767 
L 217.461982 85.51372 
L 207.917732 91.673198 
z
" style="fill:#ffffff;stroke:#000000;"/>
    <path clip-path="url(#pc59c0bc9f4)" d="M 191.190931 108.101059 
L 202.964658 110.343581 
L 210.185401 103.856175 
L 207.917732 91.673198 
L 200.327416 88.38568 
L 189.929314 93.166253 
z
" style="fill:#ffffff;stroke:#000000;"/>
    <path clip-path="url(#pc59c0bc9f4)" d="M 200.327416 88.38568 
L 207.917732 91.673198 
L 217.461982 85.51372 
L 216.361246 73.338182 
L 208.438018 69.479319 
L 199.277353 73.063701 
z
" style="fill:#ffffff;stroke:#000000;"/>
    <path clip-path="url(#pc59c0bc9f4)" d="M 173.56336 256.270883 
L 182.4 258.480468 
L 182.4 229.304054 
L 180.021881 229.356111 
L 165.336606 239.923439 
z
" style="fill:#ffffff;stroke:#000000;"/>
    <path clip-path="url(#pc59c0bc9f4)" d="M 173.620565 68.901644 
L 184.184604 73.204074 
L 191.847115 69.552628 
L 191.318178 53.568 
L 171.921088 53.568 
z
" style="fill:#ffffff;stroke:#000000;"/>
    <path clip-path="url(#pc59c0bc9f4)" d="M 174.599283 91.459753 
L 182.43086 89.266084 
L 184.184604 73.204074 
L 173.620565 68.901644 
L 163.1382 76.833794 
z
" style="fill:#ffffff;stroke:#000000;"/>
    <path clip-path="url(#pc59c0bc9f4)" d="M 174.149152 133.413747 
L 182.4 135.395096 
L 190.858153 131.388616 
L 185.553138 112.728644 
L 176.329622 112.214488 
L 168.727101 120.92649 
z
" style="fill:#ffffff;stroke:#000000;"/>
    <path clip-path="url(#pc59c0bc9f4)" d="M 273.788727 103.745091 
L 290.038765 98.328412 
L 284.422718 84.984671 
L 270.627538 85.542975 
L 268.847429 88.632304 
z
" style="fill:#ffffff;stroke:#000000;"/>
    <path clip-path="url(#pc59c0bc9f4)" d="M 235.25683 82.140418 
L 248.973907 88.071287 
L 254.402967 72.174261 
L 241.646153 67.315352 
L 234.350796 72.526161 
z
" style="fill:#ffffff;stroke:#000000;"/>
    <path clip-path="url(#pc59c0bc9f4)" d="M 155.52 216.682812 
L 163.055526 215.984219 
L 174.520284 202.707053 
L 162.647098 191.13318 
L 155.52 191.130569 
z
" style="fill:#ffffff;stroke:#000000;"/>
    <path clip-path="url(#pc59c0bc9f4)" d="M 191.847115 69.552628 
L 199.277353 73.063701 
L 208.438018 69.479319 
L 209.28 53.568 
L 191.318178 53.568 
z
" style="fill:#ffffff;stroke:#000000;"/>
    <path clip-path="url(#pc59c0bc9f4)" d="M 238.314352 102.215347 
L 242.547395 114.158868 
L 258.587214 108.812262 
L 253.376072 92.442407 
L 250.119413 90.701433 
z
" style="fill:#ffffff;stroke:#000000;"/>
    <path clip-path="url(#pc59c0bc9f4)" d="M 155.52 166.881944 
L 163.17349 166.815928 
L 173.516008 155.872993 
L 163.186095 143.013855 
L 155.52 142.745356 
z
" style="fill:#ffffff;stroke:#000000;"/>
    <path clip-path="url(#pc59c0bc9f4)" d="M 256.32317 71.269468 
L 267.385317 74.371727 
L 273.936946 67.929011 
L 271.187951 53.568 
L 258.534609 53.568 
z
" style="fill:#ffffff;stroke:#000000;"/>
    <path clip-path="url(#pc59c0bc9f4)" d="M 155.52 264.532035 
L 173.56336 256.270883 
L 165.336606 239.923439 
L 155.52 238.858526 
z
" style="fill:#ffffff;stroke:#000000;"/>
    <path clip-path="url(#pc59c0bc9f4)" d="M 224.573622 120.150126 
L 242.547395 114.158868 
L 238.314352 102.215347 
L 228.929573 98.727915 
L 220.625142 106.679415 
z
" style="fill:#ffffff;stroke:#000000;"/>
    <path clip-path="url(#pc59c0bc9f4)" d="M 155.52 142.745356 
L 163.186095 143.013855 
L 174.149152 133.413747 
L 168.727101 120.92649 
L 155.52 120.110356 
z
" style="fill:#ffffff;stroke:#000000;"/>
    <path clip-path="url(#pc59c0bc9f4)" d="M 258.587214 108.812262 
L 273.788727 103.745091 
L 268.847429 88.632304 
L 253.376072 92.442407 
z
" style="fill:#ffffff;stroke:#000000;"/>
    <path clip-path="url(#pc59c0bc9f4)" d="M 155.52 100.248304 
L 169.473234 99.341829 
L 174.599283 91.459753 
L 163.1382 76.833794 
L 155.52 76.644516 
z
" style="fill:#ffffff;stroke:#000000;"/>
   </g>
  </g>
 </g>
 <defs>
  <clipPath id="pc59c0bc9f4">
   <rect height="266.112" width="177.408" x="147.456" y="41.472"/>
  </clipPath>
 </defs>
</svg>
