<?xml version="1.0" encoding="utf-8" standalone="no"?>
<!DOCTYPE svg PUBLIC "-//W3C//DTD SVG 1.1//EN"
  "http://www.w3.org/Graphics/SVG/1.1/DTD/svg11.dtd">
<!-- Created with matplotlib (https://matplotlib.org/) -->
<svg height="345.6pt" version="1.1" viewBox="0 0 460.8 345.6" width="460.8pt" xmlns="http://www.w3.org/2000/svg" xmlns:xlink="http://www.w3.org/1999/xlink">
 <defs>
  <style type="text/css">
*{stroke-linecap:butt;stroke-linejoin:round;}
  </style>
 </defs>
 <g id="figure_1">
  <g id="patch_1">
   <path d="M 0 345.6 
L 460.8 345.6 
L 460.8 0 
L 0 0 
z
" style="fill:#ffffff;"/>
  </g>
  <g id="axes_1">
   <g id="PatchCollection_1">
    <path clip-path="url(#p2c0a54d4e8)" d="M 339.459174 233.556099 
L 368.973223 233.556099 
L 368.973223 204.04205 
L 339.459174 204.04205 
z
" style="fill:#ffffff;stroke:#000000;"/>
    <path clip-path="url(#p2c0a54d4e8)" d="M 368.973223 233.556099 
L 398.487273 233.556099 
L 398.487273 204.04205 
L 368.973223 204.04205 
z
" style="fill:#ffffff;stroke:#000000;"/>
    <path clip-path="url(#p2c0a54d4e8)" d="M 73.832727 204.04205 
L 103.346777 204.04205 
L 103.346777 174.528 
L 73.832727 174.528 
z
" style="fill:#ffffff;stroke:#000000;"/>
    <path clip-path="url(#p2c0a54d4e8)" d="M 103.346777 204.04205 
L 132.860826 204.04205 
L 132.860826 174.528 
L 103.346777 174.528 
z
" style="fill:#ffffff;stroke:#000000;"/>
    <path clip-path="url(#p2c0a54d4e8)" d="M 132.860826 204.04205 
L 162.374876 204.04205 
L 162.374876 174.528 
L 132.860826 174.528 
z
" style="fill:#ffffff;stroke:#000000;"/>
    <path clip-path="url(#p2c0a54d4e8)" d="M 162.374876 204.04205 
L 191.888926 204.04205 
L 191.888926 174.528 
L 162.374876 174.528 
z
" style="fill:#ffffff;stroke:#000000;"/>
    <path clip-path="url(#p2c0a54d4e8)" d="M 191.888926 204.04205 
L 221.402975 204.04205 
L 221.402975 174.528 
L 191.888926 174.528 
z
" style="fill:#ffffff;stroke:#000000;"/>
    <path clip-path="url(#p2c0a54d4e8)" d="M 221.402975 204.04205 
L 250.917025 204.04205 
L 250.917025 174.528 
L 221.402975 174.528 
z
" style="fill:#ffffff;stroke:#000000;"/>
    <path clip-path="url(#p2c0a54d4e8)" d="M 250.917025 204.04205 
L 280.431074 204.04205 
L 280.431074 174.528 
L 250.917025 174.528 
z
" style="fill:#ffffff;stroke:#000000;"/>
    <path clip-path="url(#p2c0a54d4e8)" d="M 280.431074 204.04205 
L 309.945124 204.04205 
L 309.945124 174.528 
L 280.431074 174.528 
z
" style="fill:#ffffff;stroke:#000000;"/>
    <path clip-path="url(#p2c0a54d4e8)" d="M 309.945124 204.04205 
L 339.459174 204.04205 
L 339.459174 174.528 
L 309.945124 174.528 
z
" style="fill:#ffffff;stroke:#000000;"/>
    <path clip-path="url(#p2c0a54d4e8)" d="M 339.459174 204.04205 
L 368.973223 204.04205 
L 368.973223 174.528 
L 339.459174 174.528 
z
" style="fill:#ffffff;stroke:#000000;"/>
    <path clip-path="url(#p2c0a54d4e8)" d="M 368.973223 204.04205 
L 398.487273 204.04205 
L 398.487273 174.528 
L 368.973223 174.528 
z
" style="fill:#ffffff;stroke:#000000;"/>
    <path clip-path="url(#p2c0a54d4e8)" d="M 73.832727 174.528 
L 103.346777 174.528 
L 103.346777 145.01395 
L 73.832727 145.01395 
z
" style="fill:#ffffff;stroke:#000000;"/>
    <path clip-path="url(#p2c0a54d4e8)" d="M 103.346777 174.528 
L 132.860826 174.528 
L 132.860826 145.01395 
L 103.346777 145.01395 
z
" style="fill:#ffffff;stroke:#000000;"/>
    <path clip-path="url(#p2c0a54d4e8)" d="M 132.860826 174.528 
L 162.374876 174.528 
L 162.374876 145.01395 
L 132.860826 145.01395 
z
" style="fill:#ffffff;stroke:#000000;"/>
    <path clip-path="url(#p2c0a54d4e8)" d="M 162.374876 174.528 
L 191.888926 174.528 
L 191.888926 145.01395 
L 162.374876 145.01395 
z
" style="fill:#ffffff;stroke:#000000;"/>
    <path clip-path="url(#p2c0a54d4e8)" d="M 191.888926 174.528 
L 221.402975 174.528 
L 221.402975 145.01395 
L 191.888926 145.01395 
z
" style="fill:#ffffff;stroke:#000000;"/>
    <path clip-path="url(#p2c0a54d4e8)" d="M 221.402975 174.528 
L 250.917025 174.528 
L 250.917025 145.01395 
L 221.402975 145.01395 
z
" style="fill:#ffffff;stroke:#000000;"/>
    <path clip-path="url(#p2c0a54d4e8)" d="M 280.431074 174.528 
L 309.945124 174.528 
L 309.945124 145.01395 
L 280.431074 145.01395 
z
" style="fill:#ffffff;stroke:#000000;"/>
    <path clip-path="url(#p2c0a54d4e8)" d="M 309.945124 174.528 
L 339.459174 174.528 
L 339.459174 145.01395 
L 309.945124 145.01395 
z
" style="fill:#ffffff;stroke:#000000;"/>
    <path clip-path="url(#p2c0a54d4e8)" d="M 339.459174 174.528 
L 368.973223 174.528 
L 368.973223 145.01395 
L 339.459174 145.01395 
z
" style="fill:#ffffff;stroke:#000000;"/>
    <path clip-path="url(#p2c0a54d4e8)" d="M 368.973223 174.528 
L 398.487273 174.528 
L 398.487273 145.01395 
L 368.973223 145.01395 
z
" style="fill:#ffffff;stroke:#000000;"/>
    <path clip-path="url(#p2c0a54d4e8)" d="M 73.832727 145.01395 
L 103.346777 145.01395 
L 103.346777 115.499901 
L 73.832727 115.499901 
z
" style="fill:#ffffff;stroke:#000000;"/>
    <path clip-path="url(#p2c0a54d4e8)" d="M 103.346777 145.01395 
L 132.860826 145.01395 
L 132.860826 115.499901 
L 103.346777 115.499901 
z
" style="fill:#ffffff;stroke:#000000;"/>
    <path clip-path="url(#p2c0a54d4e8)" d="M 132.860826 145.01395 
L 162.374876 145.01395 
L 162.374876 115.499901 
L 132.860826 115.499901 
z
" style="fill:#ffffff;stroke:#000000;"/>
    <path clip-path="url(#p2c0a54d4e8)" d="M 162.374876 145.01395 
L 191.888926 145.01395 
L 191.888926 115.499901 
L 162.374876 115.499901 
z
" style="fill:#ffffff;stroke:#000000;"/>
    <path clip-path="url(#p2c0a54d4e8)" d="M 191.888926 145.01395 
L 221.402975 145.01395 
L 221.402975 115.499901 
L 191.888926 115.499901 
z
" style="fill:#ffffff;stroke:#000000;"/>
    <path clip-path="url(#p2c0a54d4e8)" d="M 221.402975 145.01395 
L 250.917025 145.01395 
L 250.917025 115.499901 
L 221.402975 115.499901 
z
" style="fill:#ffffff;stroke:#000000;"/>
    <path clip-path="url(#p2c0a54d4e8)" d="M 250.917025 145.01395 
L 280.431074 145.01395 
L 280.431074 115.499901 
L 250.917025 115.499901 
z
" style="fill:#ffffff;stroke:#000000;"/>
    <path clip-path="url(#p2c0a54d4e8)" d="M 280.431074 145.01395 
L 309.945124 145.01395 
L 309.945124 115.499901 
L 280.431074 115.499901 
z
" style="fill:#ffffff;stroke:#000000;"/>
    <path clip-path="url(#p2c0a54d4e8)" d="M 309.945124 145.01395 
L 339.459174 145.01395 
L 339.459174 115.499901 
L 309.945124 115.499901 
z
" style="fill:#ffffff;stroke:#000000;"/>
    <path clip-path="url(#p2c0a54d4e8)" d="M 339.459174 145.01395 
L 368.973223 145.01395 
L 368.973223 115.499901 
L 339.459174 115.499901 
z
" style="fill:#ffffff;stroke:#000000;"/>
    <path clip-path="url(#p2c0a54d4e8)" d="M 368.973223 145.01395 
L 398.487273 145.01395 
L 398.487273 115.499901 
L 368.973223 115.499901 
z
" style="fill:#ffffff;stroke:#000000;"/>
   </g>
  </g>
 </g>
 <defs>
  <clipPath id="p2c0a54d4e8">
   <rect height="129.861818" width="357.12" x="57.6" y="109.597091"/>
  </clipPath>
 </defs>
</svg>
