<?xml version="1.0" encoding="utf-8" standalone="no"?>
<!DOCTYPE svg PUBLIC "-//W3C//DTD SVG 1.1//EN"
  "http://www.w3.org/Graphics/SVG/1.1/DTD/svg11.dtd">
<!-- Created with matplotlib (https://matplotlib.org/) -->
<svg height="345.6pt" version="1.1" viewBox="0 0 460.8 345.6" width="460.8pt" xmlns="http://www.w3.org/2000/svg" xmlns:xlink="http://www.w3.org/1999/xlink">
 <defs>
  <style type="text/css">
*{stroke-linecap:butt;stroke-linejoin:round;}
  </style>
 </defs>
 <g id="figure_1">
  <g id="patch_1">
   <path d="M 0 345.6 
L 460.8 345.6 
L 460.8 0 
L 0 0 
z
" style="fill:#ffffff;"/>
  </g>
  <g id="axes_1">
   <g id="PatchCollection_1">
    <path clip-path="url(#p1fcc9250d3)" d="M 190.340548 295.488 
L 242.797966 295.488 
L 241.354939 256.725737 
L 221.079326 244.837782 
L 189.466131 260.308096 
z
" style="fill:#ffffff;stroke:#000000;"/>
    <path clip-path="url(#p1fcc9250d3)" d="M 168.197938 126.003578 
L 198.843511 150.652491 
L 214.768793 145.124941 
L 223.299446 106.407955 
L 187.132405 90.989025 
L 170.417634 103.39303 
z
" style="fill:#ffffff;stroke:#000000;"/>
    <path clip-path="url(#p1fcc9250d3)" d="M 289.571522 80.448404 
L 316.01283 102.868009 
L 338.894902 94.581129 
L 346.364895 53.568 
L 288.969622 53.568 
z
" style="fill:#ffffff;stroke:#000000;"/>
    <path clip-path="url(#p1fcc9250d3)" d="M 291.756997 295.488 
L 339.796508 295.488 
L 341.386945 258.333263 
L 324.909311 241.987061 
L 292.016611 254.904029 
z
" style="fill:#ffffff;stroke:#000000;"/>
    <path clip-path="url(#p1fcc9250d3)" d="M 237.544705 197.349826 
L 270.867415 213.815736 
L 294.550717 194.619579 
L 294.127211 180.143295 
L 261.78772 154.063957 
L 243.097294 161.704953 
z
" style="fill:#ffffff;stroke:#000000;"/>
    <path clip-path="url(#p1fcc9250d3)" d="M 238.498772 98.161799 
L 258.427036 104.985172 
L 289.571522 80.448404 
L 288.969622 53.568 
L 236.831366 53.568 
z
" style="fill:#ffffff;stroke:#000000;"/>
    <path clip-path="url(#p1fcc9250d3)" d="M 132.308689 295.488 
L 190.340548 295.488 
L 189.466131 260.308096 
L 169.706041 245.690442 
L 136.281464 263.835311 
z
" style="fill:#ffffff;stroke:#000000;"/>
    <path clip-path="url(#p1fcc9250d3)" d="M 136.281464 263.835311 
L 169.706041 245.690442 
L 167.959569 224.966564 
L 139.694958 206.194785 
L 108.753134 235.021009 
z
" style="fill:#ffffff;stroke:#000000;"/>
    <path clip-path="url(#p1fcc9250d3)" d="M 147.443783 175.061237 
L 186.862352 175.772062 
L 198.843511 150.652491 
L 168.197938 126.003578 
L 140.500136 143.999057 
z
" style="fill:#ffffff;stroke:#000000;"/>
    <path clip-path="url(#p1fcc9250d3)" d="M 339.410395 155.381264 
L 350.290687 171.380811 
L 387.36 174.528 
L 387.36 115.625135 
L 368.661905 116.861998 
z
" style="fill:#ffffff;stroke:#000000;"/>
    <path clip-path="url(#p1fcc9250d3)" d="M 140.500136 143.999057 
L 168.197938 126.003578 
L 170.417634 103.39303 
L 135.876423 86.595691 
L 109.565686 114.322398 
z
" style="fill:#ffffff;stroke:#000000;"/>
    <path clip-path="url(#p1fcc9250d3)" d="M 84.96 295.488 
L 132.308689 295.488 
L 136.281464 263.835311 
L 108.753134 235.021009 
L 94.867303 234.358294 
L 84.96 236.760625 
z
" style="fill:#ffffff;stroke:#000000;"/>
    <path clip-path="url(#p1fcc9250d3)" d="M 135.876423 86.595691 
L 170.417634 103.39303 
L 187.132405 90.989025 
L 189.115693 53.568 
L 131.559639 53.568 
z
" style="fill:#ffffff;stroke:#000000;"/>
    <path clip-path="url(#p1fcc9250d3)" d="M 324.909311 241.987061 
L 341.386945 258.333263 
L 387.36 246.764454 
L 387.36 222.647377 
L 339.894954 207.598018 
L 328.5696 214.584983 
z
" style="fill:#ffffff;stroke:#000000;"/>
    <path clip-path="url(#p1fcc9250d3)" d="M 187.132405 90.989025 
L 223.299446 106.407955 
L 238.498772 98.161799 
L 236.831366 53.568 
L 189.115693 53.568 
z
" style="fill:#ffffff;stroke:#000000;"/>
    <path clip-path="url(#p1fcc9250d3)" d="M 294.550717 194.619579 
L 328.5696 214.584983 
L 339.894954 207.598018 
L 350.290687 171.380811 
L 339.410395 155.381264 
L 322.838188 152.023342 
L 294.127211 180.143295 
z
" style="fill:#ffffff;stroke:#000000;"/>
    <path clip-path="url(#p1fcc9250d3)" d="M 261.78772 154.063957 
L 294.127211 180.143295 
L 322.838188 152.023342 
L 308.072784 127.957582 
L 271.000367 131.72929 
z
" style="fill:#ffffff;stroke:#000000;"/>
    <path clip-path="url(#p1fcc9250d3)" d="M 339.894954 207.598018 
L 387.36 222.647377 
L 387.36 174.528 
L 350.290687 171.380811 
z
" style="fill:#ffffff;stroke:#000000;"/>
    <path clip-path="url(#p1fcc9250d3)" d="M 197.190335 200.727521 
L 218.103541 208.387157 
L 237.544705 197.349826 
L 243.097294 161.704953 
L 214.768793 145.124941 
L 198.843511 150.652491 
L 186.862352 175.772062 
z
" style="fill:#ffffff;stroke:#000000;"/>
    <path clip-path="url(#p1fcc9250d3)" d="M 308.072784 127.957582 
L 322.838188 152.023342 
L 339.410395 155.381264 
L 368.661905 116.861998 
L 338.894902 94.581129 
L 316.01283 102.868009 
z
" style="fill:#ffffff;stroke:#000000;"/>
    <path clip-path="url(#p1fcc9250d3)" d="M 214.768793 145.124941 
L 243.097294 161.704953 
L 261.78772 154.063957 
L 271.000367 131.72929 
L 258.427036 104.985172 
L 238.498772 98.161799 
L 223.299446 106.407955 
z
" style="fill:#ffffff;stroke:#000000;"/>
    <path clip-path="url(#p1fcc9250d3)" d="M 221.079326 244.837782 
L 241.354939 256.725737 
L 271.417865 240.978292 
L 270.867415 213.815736 
L 237.544705 197.349826 
L 218.103541 208.387157 
z
" style="fill:#ffffff;stroke:#000000;"/>
    <path clip-path="url(#p1fcc9250d3)" d="M 84.96 112.292319 
L 96.398953 115.068498 
L 109.565686 114.322398 
L 135.876423 86.595691 
L 131.559639 53.568 
L 84.96 53.568 
z
" style="fill:#ffffff;stroke:#000000;"/>
    <path clip-path="url(#p1fcc9250d3)" d="M 271.417865 240.978292 
L 292.016611 254.904029 
L 324.909311 241.987061 
L 328.5696 214.584983 
L 294.550717 194.619579 
L 270.867415 213.815736 
z
" style="fill:#ffffff;stroke:#000000;"/>
    <path clip-path="url(#p1fcc9250d3)" d="M 271.000367 131.72929 
L 308.072784 127.957582 
L 316.01283 102.868009 
L 289.571522 80.448404 
L 258.427036 104.985172 
z
" style="fill:#ffffff;stroke:#000000;"/>
    <path clip-path="url(#p1fcc9250d3)" d="M 339.796508 295.488 
L 387.36 295.488 
L 387.36 246.764454 
L 341.386945 258.333263 
z
" style="fill:#ffffff;stroke:#000000;"/>
    <path clip-path="url(#p1fcc9250d3)" d="M 169.706041 245.690442 
L 189.466131 260.308096 
L 221.079326 244.837782 
L 218.103541 208.387157 
L 197.190335 200.727521 
L 167.959569 224.966564 
z
" style="fill:#ffffff;stroke:#000000;"/>
    <path clip-path="url(#p1fcc9250d3)" d="M 338.894902 94.581129 
L 368.661905 116.861998 
L 387.36 115.625135 
L 387.36 53.568 
L 346.364895 53.568 
z
" style="fill:#ffffff;stroke:#000000;"/>
    <path clip-path="url(#p1fcc9250d3)" d="M 139.694958 206.194785 
L 167.959569 224.966564 
L 197.190335 200.727521 
L 186.862352 175.772062 
L 147.443783 175.061237 
z
" style="fill:#ffffff;stroke:#000000;"/>
    <path clip-path="url(#p1fcc9250d3)" d="M 242.797966 295.488 
L 291.756997 295.488 
L 292.016611 254.904029 
L 271.417865 240.978292 
L 241.354939 256.725737 
z
" style="fill:#ffffff;stroke:#000000;"/>
   </g>
  </g>
 </g>
 <defs>
  <clipPath id="p1fcc9250d3">
   <rect height="266.112" width="332.64" x="69.84" y="41.472"/>
  </clipPath>
 </defs>
</svg>
