<?xml version="1.0" encoding="utf-8" standalone="no"?>
<!DOCTYPE svg PUBLIC "-//W3C//DTD SVG 1.1//EN"
  "http://www.w3.org/Graphics/SVG/1.1/DTD/svg11.dtd">
<!-- Created with matplotlib (https://matplotlib.org/) -->
<svg height="345.6pt" version="1.1" viewBox="0 0 460.8 345.6" width="460.8pt" xmlns="http://www.w3.org/2000/svg" xmlns:xlink="http://www.w3.org/1999/xlink">
 <defs>
  <style type="text/css">
*{stroke-linecap:butt;stroke-linejoin:round;}
  </style>
 </defs>
 <g id="figure_1">
  <g id="patch_1">
   <path d="M 0 345.6 
L 460.8 345.6 
L 460.8 0 
L 0 0 
z
" style="fill:#ffffff;"/>
  </g>
  <g id="axes_1">
   <g id="PatchCollection_1">
    <path clip-path="url(#pa56ebc7d28)" d="M 115.2 295.488 
L 142.08 295.488 
L 142.08 268.608 
L 115.2 268.608 
z
" style="fill:#ffffff;stroke:#000000;"/>
    <path clip-path="url(#pa56ebc7d28)" d="M 142.08 295.488 
L 168.96 295.488 
L 168.96 268.608 
L 142.08 268.608 
z
" style="fill:#ffffff;stroke:#000000;"/>
    <path clip-path="url(#pa56ebc7d28)" d="M 168.96 295.488 
L 195.84 295.488 
L 195.84 268.608 
L 168.96 268.608 
z
" style="fill:#ffffff;stroke:#000000;"/>
    <path clip-path="url(#pa56ebc7d28)" d="M 195.84 295.488 
L 222.72 295.488 
L 222.72 268.608 
L 195.84 268.608 
z
" style="fill:#ffffff;stroke:#000000;"/>
    <path clip-path="url(#pa56ebc7d28)" d="M 249.6 295.488 
L 276.48 295.488 
L 276.48 268.608 
L 249.6 268.608 
z
" style="fill:#ffffff;stroke:#000000;"/>
    <path clip-path="url(#pa56ebc7d28)" d="M 276.48 295.488 
L 303.36 295.488 
L 303.36 268.608 
L 276.48 268.608 
z
" style="fill:#ffffff;stroke:#000000;"/>
    <path clip-path="url(#pa56ebc7d28)" d="M 303.36 295.488 
L 330.24 295.488 
L 330.24 268.608 
L 303.36 268.608 
z
" style="fill:#ffffff;stroke:#000000;"/>
    <path clip-path="url(#pa56ebc7d28)" d="M 330.24 295.488 
L 357.12 295.488 
L 357.12 268.608 
L 330.24 268.608 
z
" style="fill:#ffffff;stroke:#000000;"/>
    <path clip-path="url(#pa56ebc7d28)" d="M 115.2 268.608 
L 142.08 268.608 
L 142.08 241.728 
L 115.2 241.728 
z
" style="fill:#ffffff;stroke:#000000;"/>
    <path clip-path="url(#pa56ebc7d28)" d="M 142.08 268.608 
L 168.96 268.608 
L 168.96 241.728 
L 142.08 241.728 
z
" style="fill:#ffffff;stroke:#000000;"/>
    <path clip-path="url(#pa56ebc7d28)" d="M 168.96 268.608 
L 195.84 268.608 
L 195.84 241.728 
L 168.96 241.728 
z
" style="fill:#ffffff;stroke:#000000;"/>
    <path clip-path="url(#pa56ebc7d28)" d="M 195.84 268.608 
L 222.72 268.608 
L 222.72 241.728 
L 195.84 241.728 
z
" style="fill:#ffffff;stroke:#000000;"/>
    <path clip-path="url(#pa56ebc7d28)" d="M 249.6 268.608 
L 276.48 268.608 
L 276.48 241.728 
L 249.6 241.728 
z
" style="fill:#ffffff;stroke:#000000;"/>
    <path clip-path="url(#pa56ebc7d28)" d="M 276.48 268.608 
L 303.36 268.608 
L 303.36 241.728 
L 276.48 241.728 
z
" style="fill:#ffffff;stroke:#000000;"/>
    <path clip-path="url(#pa56ebc7d28)" d="M 303.36 268.608 
L 330.24 268.608 
L 330.24 241.728 
L 303.36 241.728 
z
" style="fill:#ffffff;stroke:#000000;"/>
    <path clip-path="url(#pa56ebc7d28)" d="M 330.24 268.608 
L 357.12 268.608 
L 357.12 241.728 
L 330.24 241.728 
z
" style="fill:#ffffff;stroke:#000000;"/>
    <path clip-path="url(#pa56ebc7d28)" d="M 115.2 241.728 
L 142.08 241.728 
L 142.08 214.848 
L 115.2 214.848 
z
" style="fill:#ffffff;stroke:#000000;"/>
    <path clip-path="url(#pa56ebc7d28)" d="M 142.08 241.728 
L 168.96 241.728 
L 168.96 214.848 
L 142.08 214.848 
z
" style="fill:#ffffff;stroke:#000000;"/>
    <path clip-path="url(#pa56ebc7d28)" d="M 168.96 241.728 
L 195.84 241.728 
L 195.84 214.848 
L 168.96 214.848 
z
" style="fill:#ffffff;stroke:#000000;"/>
    <path clip-path="url(#pa56ebc7d28)" d="M 195.84 241.728 
L 222.72 241.728 
L 222.72 214.848 
L 195.84 214.848 
z
" style="fill:#ffffff;stroke:#000000;"/>
    <path clip-path="url(#pa56ebc7d28)" d="M 222.72 241.728 
L 249.6 241.728 
L 249.6 214.848 
L 222.72 214.848 
z
" style="fill:#ffffff;stroke:#000000;"/>
    <path clip-path="url(#pa56ebc7d28)" d="M 249.6 241.728 
L 276.48 241.728 
L 276.48 214.848 
L 249.6 214.848 
z
" style="fill:#ffffff;stroke:#000000;"/>
    <path clip-path="url(#pa56ebc7d28)" d="M 276.48 241.728 
L 303.36 241.728 
L 303.36 214.848 
L 276.48 214.848 
z
" style="fill:#ffffff;stroke:#000000;"/>
    <path clip-path="url(#pa56ebc7d28)" d="M 303.36 241.728 
L 330.24 241.728 
L 330.24 214.848 
L 303.36 214.848 
z
" style="fill:#ffffff;stroke:#000000;"/>
    <path clip-path="url(#pa56ebc7d28)" d="M 330.24 241.728 
L 357.12 241.728 
L 357.12 214.848 
L 330.24 214.848 
z
" style="fill:#ffffff;stroke:#000000;"/>
    <path clip-path="url(#pa56ebc7d28)" d="M 115.2 214.848 
L 142.08 214.848 
L 142.08 187.968 
L 115.2 187.968 
z
" style="fill:#ffffff;stroke:#000000;"/>
    <path clip-path="url(#pa56ebc7d28)" d="M 142.08 214.848 
L 168.96 214.848 
L 168.96 187.968 
L 142.08 187.968 
z
" style="fill:#ffffff;stroke:#000000;"/>
    <path clip-path="url(#pa56ebc7d28)" d="M 168.96 214.848 
L 195.84 214.848 
L 195.84 187.968 
L 168.96 187.968 
z
" style="fill:#ffffff;stroke:#000000;"/>
    <path clip-path="url(#pa56ebc7d28)" d="M 195.84 214.848 
L 222.72 214.848 
L 222.72 187.968 
L 195.84 187.968 
z
" style="fill:#ffffff;stroke:#000000;"/>
    <path clip-path="url(#pa56ebc7d28)" d="M 249.6 214.848 
L 276.48 214.848 
L 276.48 187.968 
L 249.6 187.968 
z
" style="fill:#ffffff;stroke:#000000;"/>
    <path clip-path="url(#pa56ebc7d28)" d="M 276.48 214.848 
L 303.36 214.848 
L 303.36 187.968 
L 276.48 187.968 
z
" style="fill:#ffffff;stroke:#000000;"/>
    <path clip-path="url(#pa56ebc7d28)" d="M 303.36 214.848 
L 330.24 214.848 
L 330.24 187.968 
L 303.36 187.968 
z
" style="fill:#ffffff;stroke:#000000;"/>
    <path clip-path="url(#pa56ebc7d28)" d="M 330.24 214.848 
L 357.12 214.848 
L 357.12 187.968 
L 330.24 187.968 
z
" style="fill:#ffffff;stroke:#000000;"/>
    <path clip-path="url(#pa56ebc7d28)" d="M 115.2 187.968 
L 142.08 187.968 
L 142.08 161.088 
L 115.2 161.088 
z
" style="fill:#ffffff;stroke:#000000;"/>
    <path clip-path="url(#pa56ebc7d28)" d="M 142.08 187.968 
L 168.96 187.968 
L 168.96 161.088 
L 142.08 161.088 
z
" style="fill:#ffffff;stroke:#000000;"/>
    <path clip-path="url(#pa56ebc7d28)" d="M 168.96 187.968 
L 195.84 187.968 
L 195.84 161.088 
L 168.96 161.088 
z
" style="fill:#ffffff;stroke:#000000;"/>
    <path clip-path="url(#pa56ebc7d28)" d="M 195.84 187.968 
L 222.72 187.968 
L 222.72 161.088 
L 195.84 161.088 
z
" style="fill:#ffffff;stroke:#000000;"/>
    <path clip-path="url(#pa56ebc7d28)" d="M 249.6 187.968 
L 276.48 187.968 
L 276.48 161.088 
L 249.6 161.088 
z
" style="fill:#ffffff;stroke:#000000;"/>
    <path clip-path="url(#pa56ebc7d28)" d="M 276.48 187.968 
L 303.36 187.968 
L 303.36 161.088 
L 276.48 161.088 
z
" style="fill:#ffffff;stroke:#000000;"/>
    <path clip-path="url(#pa56ebc7d28)" d="M 303.36 187.968 
L 330.24 187.968 
L 330.24 161.088 
L 303.36 161.088 
z
" style="fill:#ffffff;stroke:#000000;"/>
    <path clip-path="url(#pa56ebc7d28)" d="M 330.24 187.968 
L 357.12 187.968 
L 357.12 161.088 
L 330.24 161.088 
z
" style="fill:#ffffff;stroke:#000000;"/>
    <path clip-path="url(#pa56ebc7d28)" d="M 115.2 161.088 
L 142.08 161.088 
L 142.08 134.208 
L 115.2 134.208 
z
" style="fill:#ffffff;stroke:#000000;"/>
    <path clip-path="url(#pa56ebc7d28)" d="M 142.08 161.088 
L 168.96 161.088 
L 168.96 134.208 
L 142.08 134.208 
z
" style="fill:#ffffff;stroke:#000000;"/>
    <path clip-path="url(#pa56ebc7d28)" d="M 168.96 161.088 
L 195.84 161.088 
L 195.84 134.208 
L 168.96 134.208 
z
" style="fill:#ffffff;stroke:#000000;"/>
    <path clip-path="url(#pa56ebc7d28)" d="M 195.84 161.088 
L 222.72 161.088 
L 222.72 134.208 
L 195.84 134.208 
z
" style="fill:#ffffff;stroke:#000000;"/>
    <path clip-path="url(#pa56ebc7d28)" d="M 222.72 161.088 
L 249.6 161.088 
L 249.6 134.208 
L 222.72 134.208 
z
" style="fill:#ffffff;stroke:#000000;"/>
    <path clip-path="url(#pa56ebc7d28)" d="M 249.6 161.088 
L 276.48 161.088 
L 276.48 134.208 
L 249.6 134.208 
z
" style="fill:#ffffff;stroke:#000000;"/>
    <path clip-path="url(#pa56ebc7d28)" d="M 276.48 161.088 
L 303.36 161.088 
L 303.36 134.208 
L 276.48 134.208 
z
" style="fill:#ffffff;stroke:#000000;"/>
    <path clip-path="url(#pa56ebc7d28)" d="M 303.36 161.088 
L 330.24 161.088 
L 330.24 134.208 
L 303.36 134.208 
z
" style="fill:#ffffff;stroke:#000000;"/>
    <path clip-path="url(#pa56ebc7d28)" d="M 330.24 161.088 
L 357.12 161.088 
L 357.12 134.208 
L 330.24 134.208 
z
" style="fill:#ffffff;stroke:#000000;"/>
    <path clip-path="url(#pa56ebc7d28)" d="M 115.2 134.208 
L 142.08 134.208 
L 142.08 107.328 
L 115.2 107.328 
z
" style="fill:#ffffff;stroke:#000000;"/>
    <path clip-path="url(#pa56ebc7d28)" d="M 142.08 134.208 
L 168.96 134.208 
L 168.96 107.328 
L 142.08 107.328 
z
" style="fill:#ffffff;stroke:#000000;"/>
    <path clip-path="url(#pa56ebc7d28)" d="M 168.96 134.208 
L 195.84 134.208 
L 195.84 107.328 
L 168.96 107.328 
z
" style="fill:#ffffff;stroke:#000000;"/>
    <path clip-path="url(#pa56ebc7d28)" d="M 195.84 134.208 
L 222.72 134.208 
L 222.72 107.328 
L 195.84 107.328 
z
" style="fill:#ffffff;stroke:#000000;"/>
    <path clip-path="url(#pa56ebc7d28)" d="M 249.6 134.208 
L 276.48 134.208 
L 276.48 107.328 
L 249.6 107.328 
z
" style="fill:#ffffff;stroke:#000000;"/>
    <path clip-path="url(#pa56ebc7d28)" d="M 276.48 134.208 
L 303.36 134.208 
L 303.36 107.328 
L 276.48 107.328 
z
" style="fill:#ffffff;stroke:#000000;"/>
    <path clip-path="url(#pa56ebc7d28)" d="M 303.36 134.208 
L 330.24 134.208 
L 330.24 107.328 
L 303.36 107.328 
z
" style="fill:#ffffff;stroke:#000000;"/>
    <path clip-path="url(#pa56ebc7d28)" d="M 330.24 134.208 
L 357.12 134.208 
L 357.12 107.328 
L 330.24 107.328 
z
" style="fill:#ffffff;stroke:#000000;"/>
    <path clip-path="url(#pa56ebc7d28)" d="M 115.2 107.328 
L 142.08 107.328 
L 142.08 80.448 
L 115.2 80.448 
z
" style="fill:#ffffff;stroke:#000000;"/>
    <path clip-path="url(#pa56ebc7d28)" d="M 142.08 107.328 
L 168.96 107.328 
L 168.96 80.448 
L 142.08 80.448 
z
" style="fill:#ffffff;stroke:#000000;"/>
    <path clip-path="url(#pa56ebc7d28)" d="M 168.96 107.328 
L 195.84 107.328 
L 195.84 80.448 
L 168.96 80.448 
z
" style="fill:#ffffff;stroke:#000000;"/>
    <path clip-path="url(#pa56ebc7d28)" d="M 195.84 107.328 
L 222.72 107.328 
L 222.72 80.448 
L 195.84 80.448 
z
" style="fill:#ffffff;stroke:#000000;"/>
    <path clip-path="url(#pa56ebc7d28)" d="M 249.6 107.328 
L 276.48 107.328 
L 276.48 80.448 
L 249.6 80.448 
z
" style="fill:#ffffff;stroke:#000000;"/>
    <path clip-path="url(#pa56ebc7d28)" d="M 276.48 107.328 
L 303.36 107.328 
L 303.36 80.448 
L 276.48 80.448 
z
" style="fill:#ffffff;stroke:#000000;"/>
    <path clip-path="url(#pa56ebc7d28)" d="M 303.36 107.328 
L 330.24 107.328 
L 330.24 80.448 
L 303.36 80.448 
z
" style="fill:#ffffff;stroke:#000000;"/>
    <path clip-path="url(#pa56ebc7d28)" d="M 330.24 107.328 
L 357.12 107.328 
L 357.12 80.448 
L 330.24 80.448 
z
" style="fill:#ffffff;stroke:#000000;"/>
    <path clip-path="url(#pa56ebc7d28)" d="M 115.2 80.448 
L 142.08 80.448 
L 142.08 53.568 
L 115.2 53.568 
z
" style="fill:#ffffff;stroke:#000000;"/>
    <path clip-path="url(#pa56ebc7d28)" d="M 142.08 80.448 
L 168.96 80.448 
L 168.96 53.568 
L 142.08 53.568 
z
" style="fill:#ffffff;stroke:#000000;"/>
    <path clip-path="url(#pa56ebc7d28)" d="M 168.96 80.448 
L 195.84 80.448 
L 195.84 53.568 
L 168.96 53.568 
z
" style="fill:#ffffff;stroke:#000000;"/>
    <path clip-path="url(#pa56ebc7d28)" d="M 195.84 80.448 
L 222.72 80.448 
L 222.72 53.568 
L 195.84 53.568 
z
" style="fill:#ffffff;stroke:#000000;"/>
    <path clip-path="url(#pa56ebc7d28)" d="M 222.72 80.448 
L 249.6 80.448 
L 249.6 53.568 
L 222.72 53.568 
z
" style="fill:#ffffff;stroke:#000000;"/>
    <path clip-path="url(#pa56ebc7d28)" d="M 249.6 80.448 
L 276.48 80.448 
L 276.48 53.568 
L 249.6 53.568 
z
" style="fill:#ffffff;stroke:#000000;"/>
    <path clip-path="url(#pa56ebc7d28)" d="M 276.48 80.448 
L 303.36 80.448 
L 303.36 53.568 
L 276.48 53.568 
z
" style="fill:#ffffff;stroke:#000000;"/>
    <path clip-path="url(#pa56ebc7d28)" d="M 303.36 80.448 
L 330.24 80.448 
L 330.24 53.568 
L 303.36 53.568 
z
" style="fill:#ffffff;stroke:#000000;"/>
    <path clip-path="url(#pa56ebc7d28)" d="M 330.24 80.448 
L 357.12 80.448 
L 357.12 53.568 
L 330.24 53.568 
z
" style="fill:#ffffff;stroke:#000000;"/>
   </g>
  </g>
 </g>
 <defs>
  <clipPath id="pa56ebc7d28">
   <rect height="266.112" width="266.112" x="103.104" y="41.472"/>
  </clipPath>
 </defs>
</svg>
